<mxfile host="app.diagrams.net" agent="Mozilla/5.0 (Macintosh; Intel Mac OS X 10_15_7) AppleWebKit/537.36 (KHTML, like Gecko) Chrome/128.0.0.0 Safari/537.36" version="24.8.0">
  <diagram name="Page-1" id="h2Dyw8mGkt_qtwxA6A1Q">
    <mxGraphModel dx="1363" dy="874" grid="1" gridSize="10" guides="1" tooltips="1" connect="1" arrows="1" fold="1" page="1" pageScale="1" pageWidth="1920" pageHeight="1200" math="0" shadow="0">
      <root>
        <mxCell id="0" />
        <mxCell id="1" parent="0" />
        <mxCell id="JrVK4YbMQ9THBiMQYc9M-1" value="&lt;font style=&quot;font-size: 14px;&quot;&gt;&lt;b&gt;RDS Multi AZ&lt;/b&gt;&lt;/font&gt;" style="sketch=0;outlineConnect=0;fontColor=#232F3E;gradientColor=none;fillColor=#C925D1;strokeColor=none;dashed=0;verticalLabelPosition=bottom;verticalAlign=top;align=center;html=1;fontSize=12;fontStyle=0;aspect=fixed;pointerEvents=1;shape=mxgraph.aws4.rds_multi_az;" vertex="1" parent="1">
          <mxGeometry x="515.64" y="1060.49" width="161.73" height="120.26" as="geometry" />
        </mxCell>
        <mxCell id="JrVK4YbMQ9THBiMQYc9M-2" value="Availability Zone 1" style="rounded=1;arcSize=10;dashed=1;strokeColor=#F59D56;fillColor=none;gradientColor=none;dashPattern=8 4;strokeWidth=2;verticalAlign=top;align=left;" vertex="1" parent="1">
          <mxGeometry x="360" y="380" width="199.5" height="820" as="geometry" />
        </mxCell>
        <mxCell id="JrVK4YbMQ9THBiMQYc9M-3" value="Availability Zone 2" style="rounded=1;arcSize=10;dashed=1;strokeColor=#F59D56;fillColor=none;gradientColor=none;dashPattern=8 4;strokeWidth=2;align=left;verticalAlign=top;" vertex="1" parent="1">
          <mxGeometry x="630" y="380" width="199.5" height="820" as="geometry" />
        </mxCell>
        <mxCell id="JrVK4YbMQ9THBiMQYc9M-14" value="" style="edgeStyle=orthogonalEdgeStyle;rounded=0;orthogonalLoop=1;jettySize=auto;html=1;" edge="1" parent="1" source="JrVK4YbMQ9THBiMQYc9M-8" target="JrVK4YbMQ9THBiMQYc9M-13">
          <mxGeometry relative="1" as="geometry" />
        </mxCell>
        <mxCell id="JrVK4YbMQ9THBiMQYc9M-8" value="AWS WAF" style="sketch=0;points=[[0,0,0],[0.25,0,0],[0.5,0,0],[0.75,0,0],[1,0,0],[0,1,0],[0.25,1,0],[0.5,1,0],[0.75,1,0],[1,1,0],[0,0.25,0],[0,0.5,0],[0,0.75,0],[1,0.25,0],[1,0.5,0],[1,0.75,0]];outlineConnect=0;fontColor=#232F3E;fillColor=#DD344C;strokeColor=#ffffff;dashed=0;verticalLabelPosition=bottom;verticalAlign=top;align=center;html=1;fontSize=12;fontStyle=0;aspect=fixed;shape=mxgraph.aws4.resourceIcon;resIcon=mxgraph.aws4.waf;" vertex="1" parent="1">
          <mxGeometry x="90" y="559.5" width="78" height="78" as="geometry" />
        </mxCell>
        <mxCell id="JrVK4YbMQ9THBiMQYc9M-15" value="" style="edgeStyle=orthogonalEdgeStyle;rounded=0;orthogonalLoop=1;jettySize=auto;html=1;" edge="1" parent="1" source="JrVK4YbMQ9THBiMQYc9M-13">
          <mxGeometry relative="1" as="geometry">
            <mxPoint x="379" y="599" as="targetPoint" />
          </mxGeometry>
        </mxCell>
        <mxCell id="JrVK4YbMQ9THBiMQYc9M-25" value="" style="edgeStyle=orthogonalEdgeStyle;rounded=0;orthogonalLoop=1;jettySize=auto;html=1;" edge="1" parent="1" source="JrVK4YbMQ9THBiMQYc9M-13">
          <mxGeometry relative="1" as="geometry">
            <mxPoint x="269.5" y="447" as="targetPoint" />
          </mxGeometry>
        </mxCell>
        <mxCell id="JrVK4YbMQ9THBiMQYc9M-13" value="AWS ALB" style="outlineConnect=0;dashed=0;verticalLabelPosition=bottom;verticalAlign=top;align=center;html=1;shape=mxgraph.aws3.application_load_balancer;fillColor=#F58536;gradientColor=none;" vertex="1" parent="1">
          <mxGeometry x="235" y="563" width="69" height="72" as="geometry" />
        </mxCell>
        <mxCell id="JrVK4YbMQ9THBiMQYc9M-17" value="&lt;b&gt;AWS Auto Scaling&lt;/b&gt;" style="sketch=0;points=[[0,0,0],[0.25,0,0],[0.5,0,0],[0.75,0,0],[1,0,0],[0,1,0],[0.25,1,0],[0.5,1,0],[0.75,1,0],[1,1,0],[0,0.25,0],[0,0.5,0],[0,0.75,0],[1,0.25,0],[1,0.5,0],[1,0.75,0]];outlineConnect=0;fontColor=#232F3E;fillColor=#ED7100;strokeColor=#ffffff;dashed=0;verticalLabelPosition=bottom;verticalAlign=top;align=center;html=1;fontSize=12;fontStyle=0;aspect=fixed;shape=mxgraph.aws4.resourceIcon;resIcon=mxgraph.aws4.auto_scaling2;" vertex="1" parent="1">
          <mxGeometry x="540" y="490" width="113" height="113" as="geometry" />
        </mxCell>
        <mxCell id="JrVK4YbMQ9THBiMQYc9M-18" value="&lt;b&gt;&lt;font style=&quot;font-size: 14px;&quot;&gt;AWS Managed Kafka Service Multi AZ&lt;/font&gt;&lt;/b&gt;" style="sketch=0;points=[[0,0,0],[0.25,0,0],[0.5,0,0],[0.75,0,0],[1,0,0],[0,1,0],[0.25,1,0],[0.5,1,0],[0.75,1,0],[1,1,0],[0,0.25,0],[0,0.5,0],[0,0.75,0],[1,0.25,0],[1,0.5,0],[1,0.75,0]];outlineConnect=0;fontColor=#232F3E;fillColor=#8C4FFF;strokeColor=#ffffff;dashed=0;verticalLabelPosition=bottom;verticalAlign=top;align=center;html=1;fontSize=12;fontStyle=0;aspect=fixed;shape=mxgraph.aws4.resourceIcon;resIcon=mxgraph.aws4.managed_streaming_for_kafka;" vertex="1" parent="1">
          <mxGeometry x="541.5" y="760" width="110" height="110" as="geometry" />
        </mxCell>
        <mxCell id="JrVK4YbMQ9THBiMQYc9M-22" value="&lt;b&gt;BFF System&lt;/b&gt;" style="outlineConnect=0;dashed=0;verticalLabelPosition=bottom;verticalAlign=top;align=center;html=1;shape=mxgraph.aws3.ec2;fillColor=#F58534;gradientColor=none;" vertex="1" parent="1">
          <mxGeometry x="424.75" y="460" width="70" height="78.5" as="geometry" />
        </mxCell>
        <mxCell id="JrVK4YbMQ9THBiMQYc9M-23" value="&lt;b&gt;CMS&lt;/b&gt;" style="outlineConnect=0;dashed=0;verticalLabelPosition=bottom;verticalAlign=top;align=center;html=1;shape=mxgraph.aws3.ec2;fillColor=#F58534;gradientColor=none;" vertex="1" parent="1">
          <mxGeometry x="464.75" y="559" width="70" height="78.5" as="geometry" />
        </mxCell>
        <mxCell id="JrVK4YbMQ9THBiMQYc9M-26" value="" style="edgeStyle=orthogonalEdgeStyle;rounded=0;orthogonalLoop=1;jettySize=auto;html=1;entryX=0.546;entryY=-0.002;entryDx=0;entryDy=0;entryPerimeter=0;" edge="1" parent="1" target="JrVK4YbMQ9THBiMQYc9M-3">
          <mxGeometry relative="1" as="geometry">
            <mxPoint x="269.5" y="447" as="sourcePoint" />
            <Array as="points">
              <mxPoint x="270" y="360" />
              <mxPoint x="739" y="360" />
            </Array>
          </mxGeometry>
        </mxCell>
        <mxCell id="JrVK4YbMQ9THBiMQYc9M-30" value="&lt;b&gt;Offer System&lt;/b&gt;" style="outlineConnect=0;dashed=0;verticalLabelPosition=bottom;verticalAlign=top;align=center;html=1;shape=mxgraph.aws3.ec2;fillColor=#F58534;gradientColor=none;" vertex="1" parent="1">
          <mxGeometry x="384.75" y="559" width="70" height="78.5" as="geometry" />
        </mxCell>
        <mxCell id="JrVK4YbMQ9THBiMQYc9M-32" value="&lt;b&gt;Ingestion System&lt;/b&gt;" style="outlineConnect=0;dashed=0;verticalLabelPosition=bottom;verticalAlign=top;align=center;html=1;shape=mxgraph.aws3.ec2;fillColor=#F58534;gradientColor=none;" vertex="1" parent="1">
          <mxGeometry x="430" y="670" width="70" height="78.5" as="geometry" />
        </mxCell>
        <mxCell id="JrVK4YbMQ9THBiMQYc9M-33" value="&lt;b&gt;BFF System&lt;/b&gt;" style="outlineConnect=0;dashed=0;verticalLabelPosition=bottom;verticalAlign=top;align=center;html=1;shape=mxgraph.aws3.ec2;fillColor=#F58534;gradientColor=none;" vertex="1" parent="1">
          <mxGeometry x="710" y="460" width="70" height="78.5" as="geometry" />
        </mxCell>
        <mxCell id="JrVK4YbMQ9THBiMQYc9M-34" value="&lt;b&gt;CMS&lt;/b&gt;" style="outlineConnect=0;dashed=0;verticalLabelPosition=bottom;verticalAlign=top;align=center;html=1;shape=mxgraph.aws3.ec2;fillColor=#F58534;gradientColor=none;" vertex="1" parent="1">
          <mxGeometry x="750" y="559" width="70" height="78.5" as="geometry" />
        </mxCell>
        <mxCell id="JrVK4YbMQ9THBiMQYc9M-35" value="&lt;b&gt;Offer System&lt;/b&gt;" style="outlineConnect=0;dashed=0;verticalLabelPosition=bottom;verticalAlign=top;align=center;html=1;shape=mxgraph.aws3.ec2;fillColor=#F58534;gradientColor=none;" vertex="1" parent="1">
          <mxGeometry x="670" y="559" width="70" height="78.5" as="geometry" />
        </mxCell>
        <mxCell id="JrVK4YbMQ9THBiMQYc9M-36" value="&lt;b&gt;Ingestion System&lt;/b&gt;" style="outlineConnect=0;dashed=0;verticalLabelPosition=bottom;verticalAlign=top;align=center;html=1;shape=mxgraph.aws3.ec2;fillColor=#F58534;gradientColor=none;" vertex="1" parent="1">
          <mxGeometry x="715.25" y="670" width="70" height="78.5" as="geometry" />
        </mxCell>
        <mxCell id="JrVK4YbMQ9THBiMQYc9M-37" value="&lt;b&gt;&lt;font style=&quot;font-size: 14px;&quot;&gt;AWS Elasti Cache&lt;/font&gt;&lt;/b&gt;" style="outlineConnect=0;dashed=0;verticalLabelPosition=bottom;verticalAlign=top;align=center;html=1;shape=mxgraph.aws3.elasticache;fillColor=#2E73B8;gradientColor=none;aspect=fixed;" vertex="1" parent="1">
          <mxGeometry x="546.75" y="900.75" width="99.5" height="119.4" as="geometry" />
        </mxCell>
        <mxCell id="JrVK4YbMQ9THBiMQYc9M-38" value="&lt;font style=&quot;&quot;&gt;&lt;span style=&quot;font-size: 32px;&quot;&gt;Dependent Platform Services&lt;/span&gt;&lt;br&gt;&lt;font style=&quot;font-size: 16px;&quot;&gt;(All of them operate in Multi AZ mode)&lt;/font&gt;&lt;/font&gt;" style="text;html=1;align=left;verticalAlign=middle;whiteSpace=wrap;rounded=0;" vertex="1" parent="1">
          <mxGeometry x="290" y="900.75" width="160" height="130" as="geometry" />
        </mxCell>
      </root>
    </mxGraphModel>
  </diagram>
</mxfile>
